<?xml version="1.0" encoding="UTF-8"?>
<!DOCTYPE svg PUBLIC "-//W3C//DTD SVG 1.1//EN" "http://www.w3.org/Graphics/SVG/1.1/DTD/svg11.dtd">
<!-- Creator: CorelDRAW -->
<svg xmlns="http://www.w3.org/2000/svg" xml:space="preserve" width="7in" height="5.5in" version="1.1" style="shape-rendering:geometricPrecision; text-rendering:geometricPrecision; image-rendering:optimizeQuality; fill-rule:evenodd; clip-rule:evenodd"
viewBox="0 0 7000 5500"
 xmlns:xlink="http://www.w3.org/1999/xlink"
 xmlns:xodm="http://www.corel.com/coreldraw/odm/2003">
 <defs>
  <style type="text/css">
   <![CDATA[
    .fil1 {fill:#434242}
    .fil3 {fill:#00A0E3}
    .fil0 {fill:#434242}
    .fil2 {fill:#5FA630}
   ]]>
  </style>
 </defs>
 <g id="Layer_x0020_1">
  <metadata id="CorelCorpID_0Corel-Layer"/>
  <path class="fil0" d="M3677.01 1166.98c-76.06,-387.07 -402.87,-633.87 -473.14,-682.34 -156.07,-117.5 -306.47,-180.04 -500.24,-179.06l-1834.81 9.26c-23.84,0.12 237.96,61.39 257.04,69.8 248.36,109.52 218.93,1123.99 218.91,1269.56 0,0 149.41,-98.93 157.8,-176.13l14.21 -306.96c12.82,-422.04 81.7,-566 504.63,-703.35 106.27,-34.5 488.41,-43.65 620.52,8.14 254.28,99.67 367.12,296.7 447.59,506.82 102.51,267.67 108.37,492.09 5.15,766.74 -119.63,318.31 -310.82,366.52 -405.72,428.95 35.31,10.17 305.11,29.56 372.27,41.03 528.33,90.24 926.75,756.43 572.81,1233.65 -191.31,257.94 -280.58,206.65 -510.33,229.38 -233.4,23.09 -244.35,72.14 -255.02,124.31 344,-5.86 842.75,-5.16 855.29,426.15 4.38,150.74 -26.31,783.32 33.33,784.22l257.51 3.86c15.92,0.23 176.32,-1.62 373.68,-4.52 -81.44,-35.57 -192.01,-5.3 -193.46,-114.66l-6.43 -481.88c-4.08,-306.84 3.62,-543.08 10.16,-850.18 44.19,-6.99 33.14,-5.46 74.87,-8.61 294.88,176.56 346.16,161.93 122.54,-36.37 404.19,-103.37 695.26,-294.48 761.89,-466.43 -59.69,27.4 -867.16,506.97 -956.56,445.24 11.94,-327.39 -34.94,-725.52 -211.51,-990.9 -143.19,-215.23 -326.35,-278.74 -547.3,-360.22 -205.59,-75.81 -129.53,-55.58 -55.02,-113.93 236.01,-184.8 357.64,-523.77 289.31,-871.57z"/>
  <path class="fil1" d="M5724.91 2552.04c33.2,85.16 181.67,196.42 217.37,203.8l-5.34 -363.7c-0.68,-46.57 11.13,-445.7 -9.54,-446.03l-1648.71 -26.64c-243.01,-3.93 -404.66,342.77 -605.79,343.61 44.3,121.26 330.28,-151 578.38,-149.43 205.95,1.3 1024.12,31.29 1218.63,91.19 223.7,68.88 187.55,174.22 255,347.2z"/>
  <path class="fil2" d="M4933.92 3376.76c25.72,-18.77 349.53,-262.7 311.08,-285.47 -2.5,-1.49 -7.36,4.28 -33.56,-10.36 -147.36,-82.37 -387.87,-55.34 -548.49,8.83 -185.32,74.05 -195.37,90.55 -335.24,226.33l-31.38 30.45c-12.92,12.55 -64.19,154.94 -57.85,159.48 24.08,17.25 350.22,-122.06 371.62,-133.04 337.1,-173 727.75,-418.02 147.14,-1.56 -104.39,74.88 -252.21,107.96 -361.06,153.37 -76.35,31.84 74.22,72.84 104.23,140.14 -13.78,1.91 -283.52,-156.99 -247.83,-89.22 24.51,120.22 129.02,215.11 246.72,245.88 28.73,7.51 60.09,13.34 89.27,19.54 11.37,2.5 106.57,31.72 96.74,13.23 -55.9,-124.39 38.25,-182.4 -120.25,-275.78 -125.5,-73.94 -48.51,-26.99 96.74,-79.21 88.84,-31.94 192.69,-71.37 272.12,-122.61z"/>
  <path class="fil3" d="M1599.27 3540.94c-108.67,-70.82 -84.16,-374.3 -116.41,-423.4 -40.81,2.95 -145.66,59.93 -152.6,124.7 -19.04,177.62 -12.3,210.92 -13.69,348.93 -1.78,176.53 -599.56,138.88 -379.97,142.72l488.47 8.53c145.54,2.54 414.56,25.04 530.65,-33.65 42.73,-21.6 92.7,-101.52 85.46,-125.61 -300.46,-6.01 -319.01,37.87 -441.91,-42.23z"/>
  <path class="fil3" d="M1337.25 3956.57c108.37,64.18 83.94,339.21 116.09,383.72 40.7,-2.68 145.27,-54.31 152.19,-113.02 18.99,-160.97 14.72,-191.14 13.65,-316.22 -1.36,-159.04 576.92,-126.2 378.95,-129.34l-487.15 -7.73c-145.15,-2.3 -413.44,-22.69 -529.22,30.5 -42.61,19.57 -92.45,92 -85.22,113.83 299.65,5.45 318.15,-34.32 440.71,38.27z"/>
  <path class="fil0" d="M5724.91 2552.04c33.2,85.16 181.67,196.42 217.37,203.8l-5.34 -363.7c-0.68,-46.57 11.13,-445.7 -9.54,-446.03l-1648.71 -26.64c-243.01,-3.93 -404.66,342.77 -605.79,343.61 44.3,121.26 330.28,-151 578.38,-149.43 205.95,1.3 1024.12,31.29 1218.63,91.19 223.7,68.88 187.55,174.22 255,347.2z"/>
 </g>
</svg>
